<svg width="20" height="19" viewBox="0 0 20 19" fill="none" xmlns="http://www.w3.org/2000/svg">
<g opacity="0.5">
<path d="M9.82617 18.0982C14.6849 18.0982 18.6236 14.1595 18.6236 9.30076C18.6236 4.44206 14.6849 0.503296 9.82617 0.503296C4.96746 0.503296 1.0287 4.44206 1.0287 9.30076C1.0287 14.1595 4.96746 18.0982 9.82617 18.0982Z" fill="white" stroke="#E8E8E8" stroke-linecap="round" stroke-linejoin="round"/>
<g clip-path="url(#clip0_2202_1267)">
<path d="M8.45256 13.8757C8.70521 13.8757 8.91003 13.6709 8.91003 13.4182C8.91003 13.1656 8.70521 12.9608 8.45256 12.9608C8.1999 12.9608 7.99509 13.1656 7.99509 13.4182C7.99509 13.6709 8.1999 13.8757 8.45256 13.8757Z" stroke="url(#paint0_linear_2202_1267)" stroke-width="1.5" stroke-linecap="round" stroke-linejoin="round"/>
<path d="M13.4847 13.8757C13.7374 13.8757 13.9422 13.6709 13.9422 13.4182C13.9422 13.1656 13.7374 12.9608 13.4847 12.9608C13.2321 12.9608 13.0272 13.1656 13.0272 13.4182C13.0272 13.6709 13.2321 13.8757 13.4847 13.8757Z" stroke="url(#paint1_linear_2202_1267)" stroke-width="1.5" stroke-linecap="round" stroke-linejoin="round"/>
<path d="M4.79281 4.26886H6.62268L7.8487 10.3944C7.89053 10.605 8.00511 10.7942 8.17238 10.9288C8.33965 11.0635 8.54894 11.135 8.76363 11.1309H13.2102C13.4249 11.135 13.6342 11.0635 13.8015 10.9288C13.9688 10.7942 14.0833 10.605 14.1252 10.3944L14.8571 6.5562H7.08015" stroke="url(#paint2_linear_2202_1267)" stroke-linecap="round" stroke-linejoin="round"/>
</g>
</g>
<defs>
<linearGradient id="paint0_linear_2202_1267" x1="7.99509" y1="13.8757" x2="7.49106" y2="12.3685" gradientUnits="userSpaceOnUse">
<stop stop-color="#149EE3"/>
<stop offset="1" stop-color="#5DFDB0"/>
</linearGradient>
<linearGradient id="paint1_linear_2202_1267" x1="13.0272" y1="13.8757" x2="12.5232" y2="12.3685" gradientUnits="userSpaceOnUse">
<stop stop-color="#149EE3"/>
<stop offset="1" stop-color="#5DFDB0"/>
</linearGradient>
<linearGradient id="paint2_linear_2202_1267" x1="4.79281" y1="11.1311" x2="2.06866" y2="-0.816227" gradientUnits="userSpaceOnUse">
<stop stop-color="#149EE3"/>
<stop offset="1" stop-color="#5DFDB0"/>
</linearGradient>
<clipPath id="clip0_2202_1267">
<rect width="10.9792" height="10.9792" fill="white" transform="translate(4.33534 3.8114)"/>
</clipPath>
</defs>
</svg>
